<svg viewBox="0 0 120 90" fill="none" xmlns="http://www.w3.org/2000/svg">
  <defs>
    <linearGradient id="tg-t-grad" x1="0%" y1="0%" x2="100%" y2="100%">
      <stop offset="0%" stop-color="#4338CA" />
      <stop offset="40%" stop-color="#4F46E5" />
      <stop offset="100%" stop-color="#2563EB" />
    </linearGradient>
    <linearGradient id="tg-g-grad" x1="0%" y1="0%" x2="100%" y2="80%">
      <stop offset="0%" stop-color="#2563EB" />
      <stop offset="50%" stop-color="#0EA5E9" />
      <stop offset="100%" stop-color="#06B6D4" />
    </linearGradient>
  </defs>

  <!-- Letter T with curving right arc -->
  <path
    d="M 6 14
       H 40
       C 54 24, 62 38, 62 52
       C 62 66, 54 80, 40 86
       H 20
       V 34
       H 6
       Z"
    fill="url(#tg-t-grad)"
  />

  <!-- Letter G cradling the arc of T with clean negative space gap -->
  <path
    d="M 46 14
       C 78 14, 114 26, 114 52
       C 114 78, 78 88, 46 88
       C 54 82, 60 74, 64 66
       C 80 66, 94 60, 94 52
       C 94 44, 80 36, 64 36
       C 60 28, 54 20, 46 14
       Z
       M 66 45
       H 114
       V 59
       H 84
       V 59
       H 66
       Z"
    fill="url(#tg-g-grad)"
  />
</svg>
